# Blender 4.0.1
# www.blender.org
mtllib senila2.mtl
o Plane.002
v 0.219723 0.166147 1.449336
v 0.219583 0.099783 1.494116
v 0.496922 0.166147 1.450207
v 0.496781 0.099783 1.494987
vn -0.0026 0.5593 0.8289
vt 0.000000 0.000000
vt 1.000000 0.000000
vt 1.000000 1.000000
vt 0.000000 1.000000
s 0
usemtl 
f 1/1/1 2/2/1 4/3/1 3/4/1
o Plane.003
v 0.215734 0.099027 -1.309430
v 0.215557 0.152181 -1.253157
v 0.492933 0.099027 -1.308559
v 0.492756 0.152181 -1.252286
vn 0.0022 0.7270 -0.6867
vt 0.000000 0.000000
vt 1.000000 0.000000
vt 1.000000 1.000000
vt 0.000000 1.000000
s 0
usemtl 
f 5/5/2 6/6/2 8/7/2 7/8/2
o Cube.002
v 0.177809 -0.067155 -1.263955
v 0.177944 0.097836 -1.306975
v 0.524307 -0.067155 -1.262866
v 0.524442 0.097836 -1.305886
v 0.169314 -0.067155 1.440045
v 0.169154 0.097836 1.490904
v 0.515812 -0.067155 1.441134
v 0.515652 0.097836 1.491993
vn 0.0030 -0.2523 -0.9676
vn 1.0000 -0.0000 0.0031
vn -0.0030 -0.2946 0.9556
vn -1.0000 -0.0000 -0.0031
vn -0.0000 -1.0000 -0.0000
vn -0.0000 1.0000 -0.0000
vt 0.375000 0.000000
vt 0.625000 0.000000
vt 0.625000 0.250000
vt 0.375000 0.250000
vt 0.625000 0.500000
vt 0.375000 0.500000
vt 0.625000 0.750000
vt 0.375000 0.750000
vt 0.625000 1.000000
vt 0.375000 1.000000
vt 0.125000 0.500000
vt 0.125000 0.750000
vt 0.875000 0.500000
vt 0.875000 0.750000
s 0
usemtl 
f 9/9/3 10/10/3 12/11/3 11/12/3
f 11/12/4 12/11/4 16/13/4 15/14/4
f 15/14/5 16/13/5 14/15/5 13/16/5
f 13/16/6 14/15/6 10/17/6 9/18/6
f 11/19/7 15/14/7 13/16/7 9/20/7
f 16/13/8 12/21/8 10/22/8 14/15/8
