# Blender 4.0.1
# www.blender.org
mtllib tureta.mtl
o Cylinder
v -0.032748 0.754898 -0.215741
v -0.029226 0.762081 -1.336865
v -0.033979 0.769770 -0.215649
v -0.030457 0.776954 -1.336773
v -0.037624 0.784071 -0.215569
v -0.034102 0.791254 -1.336693
v -0.043542 0.797250 -0.215503
v -0.040020 0.804434 -1.336627
v -0.051506 0.808802 -0.215454
v -0.047984 0.815985 -1.336578
v -0.061211 0.818282 -0.215424
v -0.057689 0.825466 -1.336548
v -0.072282 0.825327 -0.215414
v -0.068760 0.832510 -1.336538
v -0.084296 0.829665 -0.215424
v -0.080774 0.836848 -1.336548
v -0.096789 0.831130 -0.215454
v -0.093267 0.838313 -1.336578
v -0.109283 0.829665 -0.215502
v -0.105760 0.836848 -1.336626
v -0.121296 0.825327 -0.215568
v -0.117774 0.832510 -1.336692
v -0.132367 0.818282 -0.215648
v -0.128845 0.825466 -1.336772
v -0.142071 0.808802 -0.215739
v -0.138549 0.815985 -1.336863
v -0.150035 0.797250 -0.215838
v -0.146513 0.804434 -1.336962
v -0.155953 0.784071 -0.215941
v -0.152431 0.791254 -1.337065
v -0.159597 0.769770 -0.216044
v -0.156075 0.776954 -1.337168
v -0.160827 0.754898 -0.216143
v -0.157305 0.762081 -1.337267
v -0.159596 0.740026 -0.216235
v -0.156074 0.747209 -1.337359
v -0.155952 0.725725 -0.216315
v -0.152430 0.732909 -1.337439
v -0.150034 0.712546 -0.216381
v -0.146511 0.719729 -1.337505
v -0.142069 0.700994 -0.216430
v -0.138547 0.708177 -1.337554
v -0.132365 0.691513 -0.216460
v -0.128843 0.698697 -1.337584
v -0.121293 0.684469 -0.216470
v -0.117771 0.691652 -1.337594
v -0.109280 0.680131 -0.216460
v -0.105757 0.687314 -1.337584
v -0.096786 0.678666 -0.216431
v -0.093264 0.685850 -1.337554
v -0.084293 0.680131 -0.216382
v -0.080771 0.687314 -1.337506
v -0.072279 0.684469 -0.216316
v -0.068757 0.691652 -1.337440
v -0.061208 0.691513 -0.216236
v -0.057686 0.698697 -1.337360
v -0.051504 0.700994 -0.216145
v -0.047982 0.708177 -1.337269
v -0.043540 0.712546 -0.216046
v -0.040018 0.719729 -1.337170
v -0.037622 0.725725 -0.215943
v -0.034100 0.732909 -1.337067
v -0.033979 0.740026 -0.215840
v -0.030456 0.747209 -1.336964
vn 0.9966 0.0825 0.0037
vn 0.9690 0.2469 0.0046
vn 0.9122 0.4096 0.0055
vn 0.8233 0.5676 0.0062
vn 0.6988 0.7153 0.0068
vn 0.5368 0.8437 0.0071
vn 0.3396 0.9405 0.0071
vn 0.1164 0.9932 0.0067
vn -0.1165 0.9932 0.0060
vn -0.3397 0.9405 0.0050
vn -0.5368 0.8437 0.0037
vn -0.6988 0.7153 0.0024
vn -0.8233 0.5676 0.0011
vn -0.9123 0.4096 -0.0002
vn -0.9690 0.2469 -0.0015
vn -0.9966 0.0825 -0.0026
vn -0.9966 -0.0825 -0.0037
vn -0.9690 -0.2469 -0.0046
vn -0.9122 -0.4096 -0.0055
vn -0.8233 -0.5676 -0.0062
vn -0.6988 -0.7153 -0.0068
vn -0.5368 -0.8437 -0.0071
vn -0.3396 -0.9405 -0.0071
vn -0.1164 -0.9932 -0.0067
vn 0.1165 -0.9932 -0.0060
vn 0.3397 -0.9405 -0.0050
vn 0.5368 -0.8437 -0.0037
vn 0.6988 -0.7153 -0.0024
vn 0.8233 -0.5676 -0.0011
vn 0.9123 -0.4096 0.0002
vn 0.0031 0.0064 -1.0000
vn 0.9690 -0.2469 0.0015
vn 0.9966 -0.0825 0.0026
vn -0.0031 -0.0064 1.0000
vt 1.000000 0.500000
vt 1.000000 1.000000
vt 0.968750 1.000000
vt 0.968750 0.500000
vt 0.937500 1.000000
vt 0.937500 0.500000
vt 0.906250 1.000000
vt 0.906250 0.500000
vt 0.875000 1.000000
vt 0.875000 0.500000
vt 0.843750 1.000000
vt 0.843750 0.500000
vt 0.812500 1.000000
vt 0.812500 0.500000
vt 0.781250 1.000000
vt 0.781250 0.500000
vt 0.750000 1.000000
vt 0.750000 0.500000
vt 0.718750 1.000000
vt 0.718750 0.500000
vt 0.687500 1.000000
vt 0.687500 0.500000
vt 0.656250 1.000000
vt 0.656250 0.500000
vt 0.625000 1.000000
vt 0.625000 0.500000
vt 0.593750 1.000000
vt 0.593750 0.500000
vt 0.562500 1.000000
vt 0.562500 0.500000
vt 0.531250 1.000000
vt 0.531250 0.500000
vt 0.500000 1.000000
vt 0.500000 0.500000
vt 0.468750 1.000000
vt 0.468750 0.500000
vt 0.437500 1.000000
vt 0.437500 0.500000
vt 0.406250 1.000000
vt 0.406250 0.500000
vt 0.375000 1.000000
vt 0.375000 0.500000
vt 0.343750 1.000000
vt 0.343750 0.500000
vt 0.312500 1.000000
vt 0.312500 0.500000
vt 0.281250 1.000000
vt 0.281250 0.500000
vt 0.250000 1.000000
vt 0.250000 0.500000
vt 0.218750 1.000000
vt 0.218750 0.500000
vt 0.187500 1.000000
vt 0.187500 0.500000
vt 0.156250 1.000000
vt 0.156250 0.500000
vt 0.125000 1.000000
vt 0.125000 0.500000
vt 0.093750 1.000000
vt 0.093750 0.500000
vt 0.062500 1.000000
vt 0.062500 0.500000
vt 0.296822 0.485388
vt 0.250000 0.490000
vt 0.203178 0.485388
vt 0.158156 0.471731
vt 0.116663 0.449553
vt 0.080294 0.419706
vt 0.050447 0.383337
vt 0.028269 0.341844
vt 0.014612 0.296822
vt 0.010000 0.250000
vt 0.014612 0.203178
vt 0.028269 0.158156
vt 0.050447 0.116663
vt 0.080294 0.080294
vt 0.116663 0.050447
vt 0.158156 0.028269
vt 0.203178 0.014612
vt 0.250000 0.010000
vt 0.296822 0.014612
vt 0.341844 0.028269
vt 0.383337 0.050447
vt 0.419706 0.080294
vt 0.449553 0.116663
vt 0.471731 0.158156
vt 0.485388 0.203178
vt 0.490000 0.250000
vt 0.485388 0.296822
vt 0.471731 0.341844
vt 0.449553 0.383337
vt 0.419706 0.419706
vt 0.383337 0.449553
vt 0.341844 0.471731
vt 0.031250 1.000000
vt 0.031250 0.500000
vt 0.000000 1.000000
vt 0.000000 0.500000
vt 0.750000 0.490000
vt 0.796822 0.485388
vt 0.841844 0.471731
vt 0.883337 0.449553
vt 0.919706 0.419706
vt 0.949553 0.383337
vt 0.971731 0.341844
vt 0.985388 0.296822
vt 0.990000 0.250000
vt 0.985388 0.203178
vt 0.971731 0.158156
vt 0.949553 0.116663
vt 0.919706 0.080294
vt 0.883337 0.050447
vt 0.841844 0.028269
vt 0.796822 0.014612
vt 0.750000 0.010000
vt 0.703178 0.014612
vt 0.658156 0.028269
vt 0.616663 0.050447
vt 0.580294 0.080294
vt 0.550447 0.116663
vt 0.528269 0.158156
vt 0.514612 0.203178
vt 0.510000 0.250000
vt 0.514612 0.296822
vt 0.528269 0.341844
vt 0.550447 0.383337
vt 0.580294 0.419706
vt 0.616663 0.449553
vt 0.658156 0.471731
vt 0.703178 0.485388
s 0
usemtl 
f 1/1/1 2/2/1 4/3/1 3/4/1
f 3/4/2 4/3/2 6/5/2 5/6/2
f 5/6/3 6/5/3 8/7/3 7/8/3
f 7/8/4 8/7/4 10/9/4 9/10/4
f 9/10/5 10/9/5 12/11/5 11/12/5
f 11/12/6 12/11/6 14/13/6 13/14/6
f 13/14/7 14/13/7 16/15/7 15/16/7
f 15/16/8 16/15/8 18/17/8 17/18/8
f 17/18/9 18/17/9 20/19/9 19/20/9
f 19/20/10 20/19/10 22/21/10 21/22/10
f 21/22/11 22/21/11 24/23/11 23/24/11
f 23/24/12 24/23/12 26/25/12 25/26/12
f 25/26/13 26/25/13 28/27/13 27/28/13
f 27/28/14 28/27/14 30/29/14 29/30/14
f 29/30/15 30/29/15 32/31/15 31/32/15
f 31/32/16 32/31/16 34/33/16 33/34/16
f 33/34/17 34/33/17 36/35/17 35/36/17
f 35/36/18 36/35/18 38/37/18 37/38/18
f 37/38/19 38/37/19 40/39/19 39/40/19
f 39/40/20 40/39/20 42/41/20 41/42/20
f 41/42/21 42/41/21 44/43/21 43/44/21
f 43/44/22 44/43/22 46/45/22 45/46/22
f 45/46/23 46/45/23 48/47/23 47/48/23
f 47/48/24 48/47/24 50/49/24 49/50/24
f 49/50/25 50/49/25 52/51/25 51/52/25
f 51/52/26 52/51/26 54/53/26 53/54/26
f 53/54/27 54/53/27 56/55/27 55/56/27
f 55/56/28 56/55/28 58/57/28 57/58/28
f 57/58/29 58/57/29 60/59/29 59/60/29
f 59/60/30 60/59/30 62/61/30 61/62/30
f 4/63/31 2/64/31 64/65/31 62/66/31 60/67/31 58/68/31 56/69/31 54/70/31 52/71/31 50/72/31 48/73/31 46/74/31 44/75/31 42/76/31 40/77/31 38/78/31 36/79/31 34/80/31 32/81/31 30/82/31 28/83/31 26/84/31 24/85/31 22/86/31 20/87/31 18/88/31 16/89/31 14/90/31 12/91/31 10/92/31 8/93/31 6/94/31
f 61/62/32 62/61/32 64/95/32 63/96/32
f 63/96/33 64/95/33 2/97/33 1/98/33
f 1/99/34 3/100/34 5/101/34 7/102/34 9/103/34 11/104/34 13/105/34 15/106/34 17/107/34 19/108/34 21/109/34 23/110/34 25/111/34 27/112/34 29/113/34 31/114/34 33/115/34 35/116/34 37/117/34 39/118/34 41/119/34 43/120/34 45/121/34 47/122/34 49/123/34 51/124/34 53/125/34 55/126/34 57/127/34 59/128/34 61/129/34 63/130/34
