# Blender 4.0.1
# www.blender.org
mtllib turela.mtl
o Cube
v -0.745171 0.593114 -0.551503
v -0.664761 0.923096 -0.209352
v 0.571522 0.593114 -0.547366
v 0.467354 0.923096 -0.205796
v -0.749527 0.593114 0.835039
v -0.667394 0.923096 0.628462
v 0.567166 0.593114 0.839176
v 0.464722 0.923096 0.632019
vn 0.0022 0.7195 -0.6945
vn 0.9545 0.2982 0.0030
vn -0.0027 0.5311 0.8473
vn -0.9708 0.2397 -0.0030
vn -0.0000 -1.0000 -0.0000
vn -0.0000 1.0000 -0.0000
vt 0.375000 0.000000
vt 0.625000 0.000000
vt 0.625000 0.250000
vt 0.375000 0.250000
vt 0.625000 0.500000
vt 0.375000 0.500000
vt 0.625000 0.750000
vt 0.375000 0.750000
vt 0.625000 1.000000
vt 0.375000 1.000000
vt 0.125000 0.500000
vt 0.125000 0.750000
vt 0.875000 0.500000
vt 0.875000 0.750000
s 0
usemtl 
f 1/1/1 2/2/1 4/3/1 3/4/1
f 3/4/2 4/3/2 8/5/2 7/6/2
f 7/6/3 8/5/3 6/7/3 5/8/3
f 5/8/4 6/7/4 2/9/4 1/10/4
f 3/11/5 7/6/5 5/8/5 1/12/5
f 8/5/6 4/13/6 2/14/6 6/7/6
